<svg xmlns="http://www.w3.org/2000/svg" width="256" height="256" viewBox="0 0 100 100"><rect width="100" height="100" rx="20" fill="#ffffff"></rect><path fill="#000000" d="M43.46 29L47.96 29L29.36 71L24.98 71L6.38 29L11.18 29L27.26 65.48L43.46 29ZM54.02 71L54.02 29L71.12 29Q77.78 29 82.88 31.67Q87.98 34.34 90.80 39.11Q93.62 43.88 93.62 50L93.62 50Q93.62 56.12 90.80 60.89Q87.98 65.66 82.88 68.33Q77.78 71 71.12 71L71.12 71L54.02 71ZM58.46 67.16L70.88 67.16Q76.40 67.16 80.54 64.97Q84.68 62.78 86.96 58.91Q89.24 55.04 89.24 50L89.24 50Q89.24 44.96 86.96 41.09Q84.68 37.22 80.54 35.03Q76.40 32.84 70.88 32.84L70.88 32.84L58.46 32.84L58.46 67.16Z"></path></svg>